<svg viewBox="0 0 120 120" xmlns="http://www.w3.org/2000/svg" fill-rule="evenodd" clip-rule="evenodd" stroke-linejoin="round" stroke-miterlimit="1.414"><path d="M109.52 67.775v.003c-.001 2.309-1.33 9.477-8.522 9.477-7.156 0-14.87-9.37-14.958-9.477h-.004l.002-.003-.002-.002h.004c.089-.108 7.802-9.477 14.958-9.477 7.192 0 8.521 7.167 8.522 9.477v.002zm-37.07.003h-.005c-.088.107-7.802 9.477-14.957 9.477-7.193 0-8.521-7.168-8.523-9.477v-.005c.002-2.31 1.33-9.477 8.522-9.477 7.156 0 14.87 9.369 14.958 9.477h.004l-.002.002.002.003zm28.459-20.488c-13.333 0-21.212 12.643-21.717 12.643-.505 0-8.333-12.642-21.768-12.642-13.434 0-17.272 12.642-17.677 12.642-.404 0-3.484-10.376-15.1-10.376-9.394 0-10.707 4.332-11.516 4.332 0 0 .707-4.634 2.122-12.894h23.181v-9.066H7.072L1.768 62.3h10.151s2.323-4.281 8.485-4.281c6.162 0 9.9 4.735 9.9 10.074 0 5.339-4.142 11.18-9.9 11.18s-9.091-4.935-9.091-8.36H0C0 73.935 2.424 88.07 20.404 88.07c14.646 0 19.343-10.912 19.343-12.222 0 1.108 5.657 12.222 17.677 12.222 13.94 0 20.96-12.222 21.768-12.222.808 0 9.09 12.222 21.717 12.222C113.535 88.071 120 76.957 120 67.59c0-9.369-5.757-20.298-19.091-20.298" fill="#231f20" fill-rule="nonzero"/></svg>