<?xml version="1.0" standalone="no"?>
<!DOCTYPE svg PUBLIC "-//W3C//DTD SVG 1.1//EN" "http://www.w3.org/Graphics/SVG/1.1/DTD/svg11.dtd">
<svg width="100%" height="100%" viewBox="0 0 120 120" version="1.1" xmlns="http://www.w3.org/2000/svg" xmlns:xlink="http://www.w3.org/1999/xlink" xml:space="preserve" style="fill-rule:evenodd;clip-rule:evenodd;stroke-linejoin:round;stroke-miterlimit:1.41421;">
    <g id="Layer1">
        <path d="M109.52,67.7753L109.52,67.7777C109.519,70.087 108.19,77.2546 100.998,77.2546C93.8422,77.2546 86.1288,67.8853 86.0399,67.7777L86.0356,67.7777L86.0377,67.7753C86.0377,67.775 86.0356,67.7726 86.0356,67.7726L86.0399,67.7726C86.1288,67.6646 93.8422,58.2956 100.998,58.2956C108.19,58.2956 109.519,65.4633 109.52,67.7726L109.52,67.7753ZM72.4493,67.7777L72.4454,67.7777C72.3568,67.8853 64.6431,77.2546 57.4875,77.2546C50.2954,77.2546 48.9667,70.087 48.9649,67.7777L48.9646,67.7777L48.9646,67.7753L48.9646,67.7726L48.9649,67.7726C48.9667,65.4633 50.2954,58.2956 57.4875,58.2956C64.6431,58.2956 72.3568,67.6646 72.4454,67.7726L72.4493,67.7726C72.4493,67.7726 72.4472,67.775 72.4472,67.7753L72.4493,67.7777ZM100.909,47.2905C87.576,47.2905 79.6968,59.933 79.1918,59.933C78.6872,59.933 70.8588,47.2905 57.4243,47.2905C43.9901,47.2905 40.1517,59.933 39.7474,59.933C39.3434,59.933 36.2625,49.5571 24.6465,49.5571C15.2527,49.5571 13.9395,53.8887 13.1312,53.8887C13.1312,53.8887 13.8385,49.255 15.2527,40.9946L38.4345,40.9946L38.4345,31.9286L7.07058,31.9286L1.76772,62.3004L11.9193,62.3004C11.9193,62.3004 14.2425,58.0189 20.4041,58.0189C26.5657,58.0189 30.3031,62.7536 30.3031,68.0925C30.3031,73.4316 26.1617,79.2739 20.4041,79.2739C14.6464,79.2739 11.313,74.3379 11.313,70.9128L-2.14051e-13,70.9128C-2.14051e-13,73.9348 2.42419,88.0714 20.4041,88.0714C35.0505,88.0714 39.7474,77.1588 39.7474,75.8492C39.7474,76.9568 45.4041,88.0714 57.4243,88.0714C71.3635,88.0714 78.3836,75.8492 79.1918,75.8492C80.0001,75.8492 88.2829,88.0714 100.909,88.0714C113.535,88.0714 120,76.9568 120,67.5887C120,58.2203 114.243,47.2905 100.909,47.2905" style="fill:rgb(35,31,32);fill-rule:nonzero;"/>
    </g>
</svg>
