<?xml version="1.0" standalone="no"?>
<!DOCTYPE svg PUBLIC "-//W3C//DTD SVG 1.1//EN" "http://www.w3.org/Graphics/SVG/1.1/DTD/svg11.dtd">
<svg width="100%" height="100%" viewBox="0 0 120 120" version="1.1" xmlns="http://www.w3.org/2000/svg" xmlns:xlink="http://www.w3.org/1999/xlink" xml:space="preserve" style="fill-rule:evenodd;clip-rule:evenodd;stroke-linejoin:round;stroke-miterlimit:1.41421;">
    <g id="Layer1">
        <path d="M59.9939,0C26.8659,0 0,27.5448 0,61.5225C0,88.7023 17.1902,111.765 41.0355,119.898C44.0315,120.464 45.1243,118.563 45.1243,116.927C45.1243,115.467 45.0752,111.602 45.0506,106.465C28.3515,110.192 24.8276,98.2196 24.8276,98.2196C22.1017,91.1193 18.1725,89.2184 18.1725,89.2184C12.7207,85.4039 18.5777,85.4795 18.5777,85.4795C24.6065,85.9201 27.7745,91.8244 27.7745,91.8244C33.128,101.228 41.8213,98.5091 45.2348,96.9355C45.7874,92.9573 47.3345,90.2508 49.0412,88.7149C35.7188,87.1538 21.7088,81.879 21.7088,58.2997C21.7088,51.5899 24.054,46.101 27.885,41.7955C27.2711,40.2345 25.2082,33.9904 28.4744,25.5179C28.4744,25.5179 33.5209,23.8562 44.977,31.8251C49.7657,30.4528 54.8982,29.773 60.0061,29.7478C65.1018,29.773 70.2343,30.4528 75.023,31.8251C86.4791,23.8562 91.5011,25.5179 91.5011,25.5179C94.7795,33.9904 92.7167,40.2345 92.1027,41.7955C95.9583,46.101 98.2789,51.5899 98.2789,58.2997C98.2789,81.942 84.2443,87.1413 70.8728,88.6645C73.0339,90.5654 74.9494,94.317 74.9494,100.058C74.9494,108.278 74.8757,114.913 74.8757,116.927C74.8757,118.576 75.9562,120.49 79.0014,119.885C102.822,111.74 120,88.6897 120,61.5225C120,27.5448 93.1341,0 59.9939,0Z" style="fill:rgb(24,23,23);"/>
    </g>
</svg>
