<svg viewBox="0 0 120 120" xmlns="http://www.w3.org/2000/svg" fill-rule="evenodd" clip-rule="evenodd" stroke-linejoin="round" stroke-miterlimit="1.414"><path d="M59.994 0C26.866 0 0 27.545 0 61.523c0 27.18 17.19 50.242 41.035 58.375 2.997.566 4.09-1.335 4.09-2.971 0-1.46-.05-5.325-.074-10.462-16.7 3.727-20.223-8.245-20.223-8.245-2.726-7.1-6.655-9.002-6.655-9.002-5.452-3.814.405-3.739.405-3.739 6.029.441 9.197 6.345 9.197 6.345 5.353 9.404 14.046 6.685 17.46 5.112.552-3.979 2.1-6.685 3.806-8.221C35.72 87.154 21.71 81.879 21.71 58.3c0-6.71 2.345-12.199 6.176-16.505-.614-1.56-2.677-7.805.59-16.277 0 0 5.046-1.662 16.502 6.307 4.789-1.372 9.921-2.052 15.03-2.077 5.095.025 10.227.705 15.016 2.077 11.456-7.969 16.478-6.307 16.478-6.307 3.278 8.472 1.216 14.716.602 16.277 3.855 4.306 6.176 9.795 6.176 16.505 0 23.642-14.035 28.841-27.406 30.365 2.16 1.9 4.076 5.652 4.076 11.393 0 8.22-.073 14.855-.073 16.869 0 1.649 1.08 3.563 4.125 2.958C102.822 111.74 120 88.69 120 61.522 120 27.546 93.134 0 59.994 0z" fill="#181717"/></svg>