<?xml version="1.0" standalone="no"?>
<!DOCTYPE svg PUBLIC "-//W3C//DTD SVG 1.1//EN" "http://www.w3.org/Graphics/SVG/1.1/DTD/svg11.dtd">
<svg width="100%" height="100%" viewBox="0 0 120 120" version="1.1" xmlns="http://www.w3.org/2000/svg" xmlns:xlink="http://www.w3.org/1999/xlink" xml:space="preserve" style="fill-rule:evenodd;clip-rule:evenodd;stroke-linejoin:round;stroke-miterlimit:1.41421;">
    <g id="Layer1">
        <path id="path3059" d="M63.9724,35.9217L76.9739,50.0222L18.8263,117.856C16.2981,120.715 11.7834,120.715 9.07455,117.856L2.03162,110.234C-0.677205,107.567 -0.677205,102.803 2.03162,99.9448L63.9724,35.9217ZM118.51,50.4033L108.758,60.8834C106.772,62.9795 103.701,62.9795 101.535,60.8834L99.3677,58.4063C97.7424,56.8819 97.0201,54.0237 97.923,52.6899C99.5483,51.5466 99.0065,48.1167 95.9365,45.068C91.6024,40.3043 86.0042,40.1137 83.838,42.5908C82.9351,43.353 80.0457,46.5923 80.0457,46.5923L66.6822,32.6823L68.8492,30.3958C68.8492,30.3958 69.391,29.8241 70.4745,28.4903C74.628,24.1077 70.2939,19.1534 70.2939,19.1534C58.5557,6.95836 42.1231,7.1489 42.1231,7.1489L41.9425,2.7663C74.9901,-6.18946 87.4498,9.05438 91.9645,13.8181C96.118,18.2007 100.451,22.7729 101.536,23.9171C103.883,26.3943 101.536,33.4445 104.967,37.446C106.592,39.161 108.759,39.9232 110.384,39.9232C112.19,38.2082 115.08,38.7799 116.524,40.4948L118.511,42.7814C120.497,44.8774 120.497,48.1167 118.51,50.4033L118.51,50.4033Z" style="fill:black;fill-rule:nonzero;"/>
    </g>
</svg>
