<svg viewBox="0 0 120 120" xmlns="http://www.w3.org/2000/svg" fill-rule="evenodd" clip-rule="evenodd" stroke-linejoin="round" stroke-miterlimit="1.414"><path d="M63.972 35.922l13.002 14.1-58.148 67.834c-2.528 2.859-7.043 2.859-9.751 0l-7.043-7.622c-2.71-2.667-2.71-7.431 0-10.29l61.94-64.022zm54.538 14.481l-9.752 10.48c-1.986 2.096-5.057 2.096-7.223 0l-2.167-2.477c-1.626-1.524-2.348-4.382-1.445-5.716 1.625-1.143 1.084-4.573-1.987-7.622-4.334-4.764-9.932-4.954-12.098-2.477-.903.762-3.792 4.001-3.792 4.001l-13.364-13.91 2.167-2.286s.542-.572 1.626-1.906c4.153-4.382-.181-9.337-.181-9.337C58.556 6.958 42.124 7.15 42.124 7.15l-.181-4.383C74.99-6.189 87.45 9.054 91.965 13.818l9.571 10.1c2.347 2.476 0 9.526 3.431 13.528 1.625 1.715 3.792 2.477 5.417 2.477 1.806-1.715 4.696-1.143 6.14.572l1.987 2.286c1.986 2.096 1.986 5.336-.001 7.622z" fill-rule="nonzero"/></svg>